PathFileType	4	(X/Y/Z)	Run_500 01
DataRate	CameraRate	NumFrames	NumMarkers	Units	OrigDataRate	OrigDataStartFrame	OrigNumFrames
120	120	8	41	mm	120	91	128
Frame#	Time	RASI			LPSI			RPSI			RTH3			LTH1			LTH2			LTH3			RTB1			RTB2			RTB3			LTB1			LTB2			LTB3			RCAL			RTOE			RMT5			LCAL			LTOE			LMT5			LACR			RACR			CLAV			C7			RUA1			RUA2			RUA3			RLEL			LUA1			LUA2			LUA3			LLEL			LMEL			RFAsuperior			RFAradius			RFAulna			LFAsuperior			LFAradius			LFAulna			LASI			RTH1			RMEL			
		X1	Y1	Z1	X2	Y2	Z2	X3	Y3	Z3	X4	Y4	Z4	X5	Y5	Z5	X6	Y6	Z6	X7	Y7	Z7	X8	Y8	Z8	X9	Y9	Z9	X10	Y10	Z10	X11	Y11	Z11	X12	Y12	Z12	X13	Y13	Z13	X14	Y14	Z14	X15	Y15	Z15	X16	Y16	Z16	X17	Y17	Z17	X18	Y18	Z18	X19	Y19	Z19	X20	Y20	Z20	X21	Y21	Z21	X22	Y22	Z22	X23	Y23	Z23	X24	Y24	Z24	X25	Y25	Z25	X26	Y26	Z26	X27	Y27	Z27	X28	Y28	Z28	X29	Y29	Z29	X30	Y30	Z30	X31	Y31	Z31	X32	Y32	Z32	X33	Y33	Z33	X34	Y34	Z34	X35	Y35	Z35	X36	Y36	Z36	X37	Y37	Z37	X38	Y38	Z38	X39	Y39	Z39	X40	Y40	Z40	X41	Y41	Z41	

90	0.991667	986.846497	968.879899	-198.391211	851.8663340000001	1001.929935	-385.874421	834.195075	1005.026626	-290.634806	1047.614287	569.383596	-213.713017	964.140044	772.313931	-499.183046	1010.790883	659.88681	-487.56016	939.818103	555.756454	-476.24822	1122.901422	360.618499	-298.526219	1082.636082	299.292748	-238.369981	1085.560111	240.846093	-309.671596	836.839982	441.26005	-404.971449	778.697945	516.093988	-468.799055	681.43668	511.01928	-399.107828	954.516759	102.052333	-322.262578	1161.904998	70.488861	-347.660763	1140.343961	61.36335	-251.889802	598.444031	650.739976	-374.319343	490.70568	472.777805	-385.078631	486.824243	506.30699	-470.288921	1016.124	1432.008374	-492.166539	936.274459	1420.766697	-105.135773	1022.24694	1417.119435	-267.910673	910.4728710000001	1483.641396	-325.683954	849.591036	1309.28881	-52.03697	780.448672	1321.143719	-80.370333	789.143834	1247.660503	-23.570664	738.7497090000001	1198.281442	-3.268815	951.8257	1316.1343	-564.588937	876.585781	1290.832605	-575.884093	930.07926	1228.922337	-581.3453940000001	871.319738	1175.263659	-619.670453	815.0618919999999	1182.47665	-552.122917	811.796157	1092.487772	-8.782638	862.852679	994.631479	-66.698092	826.781805	967.711485	-11.842747	966.160891	1101.463767	-567.452804	1030.31501	1077.749614	-458.42068	1033.201097	1032.069868	-509.618047	1019.291911	964.544434	-427.623389	955.229607	806.60659	-142.949639	710.843269	1180.417093	-79.330934	
91	1	981.970187	963.296119	-198.771435	847.589757	996.5546849999999	-386.589074	830.61206	1000.467367	-291.578851	1040.590814	565.303573	-212.502518	970.5249250000001	766.989546	-498.805386	1024.082474	657.7622239999999	-488.405047	959.739401	550.669208	-478.33534	1103.625027	356.688133	-301.317389	1062.238036	298.460627	-238.42154	1059.071474	239.080868	-311.083213	864.022704	436.647698	-405.187955	805.556724	509.115362	-471.88925	708.802497	505.992677	-400.187482	916.445414	103.53783	-322.912113	1122.595332	69.98841	-347.722286	1101.208284	61.814115	-251.621868	622.350278	646.16728	-378.568925	519.3389550000001	465.500972	-385.340231	516.749252	495.739512	-471.839643	1011.887961	1426.599748	-493.141829	941.22515	1413.675072	-103.377575	1023.463947	1411.405983	-268.757579	910.464622	1478.792349	-323.718754	859.88006	1298.754192	-49.424607	789.126137	1309.960437	-72.735398	801.1330390000001	1235.937853	-18.931471	752.502539	1185.833446	3.314089	944.451532	1312.089393	-564.383326	868.540718	1286.867797	-573.8610640000001	921.297996	1224.613984	-581.029445	860.769291	1171.918629	-618.692734	805.87792	1179.674012	-549.99757	828.747984	1082.700963	-5.818246	880.988974	988.282515	-66.50283	848.1265959999999	959.710197	-10.234095	953.492428	1092.171666	-570.979116	1018.931197	1062.528702	-464.937004	1018.725498	1018.531579	-517.712686	1015.190305	957.580278	-426.463042	953.906581	803.273688	-141.382504	721.985695	1167.437296	-71.475239	
92	1.008333	977.797867	958.709824	-199.039463	843.827189	993.099433	-386.998421	826.80006	997.281021	-291.942706	1030.682559	560.689679	-211.167886	976.961416	763.947726	-498.36987	1037.964097	658.971212	-488.821327	980.7867220000001	548.66139	-479.613634	1082.482661	350.819444	-301.268737	1036.831394	296.498192	-237.010831	1031.111057	236.066553	-310.7956	892.234545	433.791042	-404.895874	832.506925	502.545366	-474.296451	736.249982	500.084827	-401.438963	878.164492	104.250832	-322.549756	1083.367962	70.453655	-347.175055	1062.277745	62.277772	-251.001427	643.680057	639.335697	-383.072332	549.27384	454.264843	-385.619511	547.006796	481.272513	-473.255035	1007.667504	1421.954753	-494.033617	945.924541	1407.801958	-102.350792	1024.281806	1406.604748	-269.722718	910.424945	1474.657628	-321.934696	870.060976	1289.987309	-47.397725	798.177549	1300.218325	-66.495529	813.55941	1225.843261	-15.070006	766.9784979999999	1174.69508	9.288379000000001	937.089249	1309.25849	-564.140141	860.390494	1284.363855	-571.07182	912.426432	1222.227568	-581.472525	850.208757	1169.916517	-617.837729	796.828559	1177.751411	-548.086888	846.499737	1074.506302	-3.879182	899.986326	983.722937	-67.061847	870.549236	953.427609	-9.593111	940.561027	1084.732875	-574.0467159999999	1006.476286	1049.007204	-470.846065	1003.12706	1006.77735	-525.3109480000001	1011.036359	952.530376	-426.093655	952.036482	800.582014	-141.109227	733.544666	1155.500882	-63.968022	
93	1.016667	974.495627	955.147208	-199.51591	840.541831	991.089652	-387.128573	823.176532	995.343664	-291.808425	1016.76533	555.268988	-210.612177	982.566967	763.200527	-497.864454	1052.008609	663.540976	-488.854427	1002.704135	549.83168	-480.08521	1059.676284	342.550052	-299.278241	1008.09615	292.035567	-235.641772	1001.720924	231.321944	-309.898989	920.959009	433.131503	-404.388719	859.210649	496.889048	-475.851002	763.198505	493.362122	-402.76491	840.560144	104.654903	-321.844829	1045.225016	70.34262099999999	-346.668665	1024.260883	62.016372	-250.531303	662.3579140000001	629.9595440000001	-387.75475	580.445856	439.309271	-386.041419	577.425584	463.448541	-474.589527	1003.52944	1418.248039	-494.878007	950.340635	1403.43749	-102.004958	1024.739598	1402.842387	-270.921407	910.167973	1471.295343	-320.509042	879.6063820000001	1283.422946	-45.758771	806.96228	1292.246486	-61.93206	826.0013	1217.690635	-11.951917	781.879821	1165.244083	14.453227	929.756167	1307.691536	-564.045926	852.282698	1283.614932	-567.7915400000001	903.312351	1221.650114	-582.294573	839.60369	1169.708296	-617.253889	788.072416	1177.196228	-546.5774699999999	864.750104	1068.435262	-2.967777	919.680832	981.379315	-68.431624	893.775827	949.267194	-10.08664	927.433676	1079.703102	-576.84024	993.217743	1038.014596	-476.023194	986.531193	997.402688	-532.013772	1007.063839	949.60493	-426.917092	947.726398	797.93225	-142.162954	745.402306	1145.002319	-57.065725	
94	1.025	972.0058320000001	952.523926	-200.522805	837.577659	989.994994	-386.958896	820.005704	994.346979	-291.307154	999.54601	549.567066	-211.004013	986.637729	764.417	-497.223603	1065.627989	671.205049	-488.400517	1024.895018	554.278283	-479.902355	1035.219391	332.867812	-297.28964	978.461684	285.247252	-235.585958	970.994233	225.693315	-309.401008	949.773299	434.839525	-403.73466	885.429097	492.48172	-476.602697	789.229498	485.938115	-403.833103	804.034183	105.18772	-321.327691	1008.403819	69.595798	-346.418545	987.328477	61.308425	-250.39143	678.602332	617.670472	-392.49407	612.625274	421.186979	-386.547444	608.120729	442.799794	-475.790828	999.413615	1415.684612	-495.716317	954.535125	1400.700835	-102.144523	1024.986741	1400.282328	-272.400819	909.6039479999999	1468.860795	-319.482719	888.29168	1279.093881	-44.369861	815.061032	1285.942519	-58.851823	838.085853	1211.574753	-9.445966	796.79551	1157.701422	18.643383	922.413771	1307.473832	-564.206982	844.284402	1284.708359	-564.47077	893.926653	1222.640906	-583.131663	828.897391	1171.517199	-616.961173	779.59005	1178.456537	-545.472272	883.109678	1064.841999	-2.936673	939.759373	981.592135	-70.664233	917.396299	947.574973	-11.819498	914.015711	1077.204648	-579.517669	979.4722860000001	1030.22394	-480.589665	969.270726	990.8717339999999	-537.53442	1003.400239	948.473851	-428.605338	940.30638	795.328729	-143.964102	757.581562	1136.235882	-51.116599	
95	1.033333	970.178048	950.830269	-202.004043	834.857662	989.591693	-386.411445	817.351579	994.1182679999999	-290.490675	980.763841	544.416196	-211.85235	989.003516	767.1330840000001	-496.421986	1078.15263	681.548752	-487.350089	1046.472785	562.012572	-479.239277	1009.142932	323.552444	-296.826832	949.486142	277.702222	-237.047901	939.334572	220.541536	-309.60796	978.339395	438.696714	-402.640954	911.013821	489.446308	-476.621685	814.332258	477.973724	-404.262155	768.5248360000001	106.024363	-321.130852	972.649894	68.790662	-346.314118	951.318246	60.692704	-250.456258	692.890477	602.208305	-397.087248	645.599387	400.642569	-386.964933	639.480407	419.868148	-476.714697	995.217209	1414.465375	-496.573372	958.599713	1399.578224	-102.550231	1025.156646	1399.080134	-274.121518	908.804772	1467.591822	-318.742985	896.219035	1276.765551	-43.241371	822.422463	1281.004282	-56.74625	849.566251	1207.460953	-7.465324	811.3005450000001	1152.150358	21.768605	915.03535	1308.733423	-564.576502	836.415881	1287.584845	-561.585258	884.3961839999999	1225.054428	-583.817197	818.047917	1175.307008	-616.841861	771.126701	1181.84231	-544.599828	901.161594	1063.84119	-3.63501	959.8032449999999	984.580115	-73.748385	940.902318	948.566572	-14.808733	900.178729	1077.058932	-582.030129	965.57733	1026.021239	-484.695016	951.875417	987.491632	-541.7857780000001	1000.10233	948.617438	-430.405114	930.685079	793.292003	-145.693901	770.099255	1129.389629	-46.451305	
96	1.041667	968.867331	950.225327	-203.520837	832.494595	990.027924	-385.442347	815.163371	994.803344	-289.295849	961.8574620000001	540.445433	-212.595864	990.087171	770.980805	-495.498112	1088.993782	694.013425	-485.757575	1066.531182	572.719993	-478.173859	981.690442	316.226559	-297.994154	921.272646	271.425688	-239.182039	907.396564	216.877039	-310.189353	1006.297512	444.153413	-400.619542	935.778159	487.668441	-475.844009	838.91945	469.605893	-403.872239	733.70062	107.043488	-321.059582	937.577403	68.351662	-346.158269	915.97533	60.433199	-250.467897	705.960909	583.532132	-401.247574	679.3829909999999	378.434862	-387.131168	672.011823	395.27597	-477.213136	990.887169	1414.741821	-497.451088	962.612926	1400.000111	-103.08688	1025.295542	1399.308287	-276.002435	907.932081	1467.690514	-318.115997	903.64685	1276.148172	-42.498398	829.276806	1277.285973	-55.137709	860.323304	1205.276142	-6.031302	825.064349	1148.584974	23.824559	907.650156	1311.584952	-564.997109	828.702139	1292.14339	-559.472388	874.905557	1228.905597	-584.361956	807.077987	1180.875469	-616.708231	762.357899	1187.446566	-543.732926	918.523308	1065.337746	-5.030642	979.371792	990.406526	-77.589414	963.77092	952.289007	-18.977845	886.0009669999999	1079.088413	-584.148779	951.866324	1025.416856	-488.303319	934.981792	987.3876	-544.888315	997.2592059999999	949.706099	-431.703227	920.640257	792.296109	-146.802518	782.80938	1124.545436	-43.24766	
97	1.05	967.99954	950.913879	-204.616485	830.732916	991.581228	-384.127488	813.398334	996.6976979999999	-287.650002	943.217985	537.94769	-213.05509	990.633447	775.808707	-494.50069	1097.824284	707.861704	-483.866016	1084.44578	585.6555540000001	-476.658266	953.2189049999999	311.732911	-299.741611	893.002375	267.839184	-240.871342	875.7049060000001	215.0623	-310.695306	1033.203993	450.559089	-397.443918	959.416599	486.843944	-474.179058	863.5025460000001	460.899135	-402.81179	699.172807	108.096355	-320.837399	902.855241	68.322992	-345.831457	881.041678	60.46064	-250.251976	718.773748	561.822809	-404.639906	714.328538	355.24192	-386.993414	706.140786	369.76685	-477.238872	986.437876	1416.571329	-498.330046	966.627706	1401.89313	-103.737885	1025.384181	1400.930525	-277.978068	907.10563	1469.200709	-317.490742	910.797223	1277.02508	-42.269183	835.918273	1274.973283	-53.823685	870.3327880000001	1204.934551	-5.22007	837.906697	1146.946295	24.88209	900.3433690000001	1316.060785	-565.31888	821.1993199999999	1298.302772	-558.225276	865.593203	1234.255011	-584.812495	796.106219	1187.991577	-616.3870899999999	753.165309	1195.123949	-542.701022	934.894231	1069.117808	-7.192361	998.069514	998.958878	-82.055527	985.562052	958.653845	-24.180138	871.896043	1083.294924	-585.646359	938.647653	1028.067483	-491.193917	919.177557	990.456173	-547.07865	995.0246079999999	951.6933299999999	-432.358805	911.829307	792.356664	-147.296998	795.395718	1121.692965	-41.46615	
